<svg width="317" height="50" viewBox="0 0 317 50" fill="none" xmlns="http://www.w3.org/2000/svg">
<path d="M44.32 39V38.6L45.32 38.24C45.8533 38.0267 46.2667 37.7733 46.56 37.48C46.8533 37.16 47.0933 36.72 47.28 36.16L55.52 12.52H58.92L67.04 36.32C67.2533 36.9067 67.4933 37.36 67.76 37.68C68.0267 37.9733 68.44 38.2267 69 38.44L69.48 38.6V39H59.32V38.6L59.92 38.4C60.48 38.1867 60.8133 37.8933 60.92 37.52C61.0533 37.12 61.04 36.6533 60.88 36.12L59 30.36H50.12L48.2 36C48.0133 36.5867 47.9467 37.0533 48 37.4C48.08 37.7467 48.4 38.0267 48.96 38.24L49.84 38.6V39H44.32ZM50.4 29.56H58.76L54.72 17.12L50.4 29.56ZM70.9356 39V38.6L71.4156 38.44C72.3756 38.12 72.8556 37.4533 72.8556 36.44V15.04C72.8556 14.5067 72.749 14.1067 72.5356 13.84C72.3223 13.5467 71.949 13.3333 71.4156 13.2L70.8956 13.08V12.68L78.2156 10.96L78.6956 11.32L78.5356 16.92V30.6C78.5356 31.5867 78.5356 32.5733 78.5356 33.56C78.5623 34.52 78.5756 35.48 78.5756 36.44C78.5756 36.9733 78.6823 37.4133 78.8956 37.76C79.109 38.08 79.469 38.32 79.9756 38.48L80.4956 38.6V39H70.9356ZM91.0519 39V38.6L91.7719 38.32C92.3052 38.1067 92.6652 37.84 92.8519 37.52C93.0652 37.2 93.1719 36.7733 93.1719 36.24V15.36C93.1719 14.8 93.0652 14.36 92.8519 14.04C92.6652 13.72 92.3052 13.4667 91.7719 13.28L91.0519 13V12.6H102.532C105.785 12.6 108.132 13.2 109.572 14.4C111.012 15.5733 111.732 17.0667 111.732 18.88C111.732 20.24 111.199 21.48 110.132 22.6C109.092 23.6933 107.292 24.4667 104.732 24.92C107.665 25.24 109.812 26.0133 111.172 27.24C112.532 28.44 113.212 29.9067 113.212 31.64C113.212 32.4933 113.025 33.36 112.652 34.24C112.279 35.0933 111.639 35.88 110.732 36.6C109.852 37.32 108.639 37.9067 107.092 38.36C105.545 38.7867 103.585 39 101.212 39H91.0519ZM99.0919 24.88H100.812C102.599 24.88 103.879 24.4667 104.652 23.64C105.452 22.8133 105.852 21.3733 105.852 19.32C105.852 17.1867 105.492 15.6667 104.772 14.76C104.052 13.8533 102.879 13.4 101.252 13.4H99.0919V24.88ZM99.0919 38.2H101.092C103.092 38.2 104.572 37.6667 105.532 36.6C106.519 35.5333 107.012 33.8667 107.012 31.6C107.012 29.4667 106.545 27.9467 105.612 27.04C104.679 26.1333 103.145 25.68 101.012 25.68H99.0919V38.2ZM119.678 17.08C118.771 17.08 117.998 16.8 117.358 16.24C116.745 15.6533 116.438 14.92 116.438 14.04C116.438 13.1333 116.745 12.4 117.358 11.84C117.998 11.28 118.771 11 119.678 11C120.585 11 121.345 11.28 121.958 11.84C122.571 12.4 122.878 13.1333 122.878 14.04C122.878 14.92 122.571 15.6533 121.958 16.24C121.345 16.8 120.585 17.08 119.678 17.08ZM114.958 39V38.6L115.518 38.44C116.051 38.28 116.411 38.04 116.598 37.72C116.811 37.4 116.918 36.9733 116.918 36.44V23.92C116.918 23.36 116.811 22.9467 116.598 22.68C116.411 22.3867 116.051 22.1867 115.518 22.08L114.958 21.96V21.56L122.278 19.2L122.678 19.6L122.558 25.28V36.48C122.558 37.0133 122.651 37.44 122.838 37.76C123.051 38.08 123.411 38.32 123.918 38.48L124.318 38.6V39H114.958ZM126.209 39V38.6L126.689 38.44C127.649 38.12 128.129 37.4533 128.129 36.44V15.04C128.129 14.5067 128.022 14.1067 127.809 13.84C127.596 13.5467 127.222 13.3333 126.689 13.2L126.169 13.08V12.68L133.489 10.96L133.969 11.32L133.809 16.92V30.6C133.809 31.5867 133.809 32.5733 133.809 33.56C133.836 34.52 133.849 35.48 133.849 36.44C133.849 36.9733 133.956 37.4133 134.169 37.76C134.382 38.08 134.742 38.32 135.249 38.48L135.769 38.6V39H126.209ZM142.984 39.6C141.437 39.6 140.13 39.16 139.064 38.28C138.024 37.4 137.504 36.1333 137.504 34.48C137.504 33.2267 138.144 32.08 139.424 31.04C140.704 29.9733 142.717 29.1733 145.464 28.64C145.89 28.56 146.37 28.48 146.904 28.4C147.437 28.2933 147.997 28.1867 148.584 28.08V24.92C148.584 23.1067 148.357 21.84 147.904 21.12C147.477 20.3733 146.797 20 145.864 20C145.224 20 144.717 20.2133 144.344 20.64C143.97 21.04 143.73 21.7467 143.624 22.76L143.544 23.2C143.49 24.3467 143.21 25.1867 142.704 25.72C142.197 26.2533 141.57 26.52 140.824 26.52C140.13 26.52 139.557 26.3067 139.104 25.88C138.65 25.4533 138.424 24.88 138.424 24.16C138.424 23.0667 138.797 22.1467 139.544 21.4C140.317 20.6533 141.33 20.0933 142.584 19.72C143.837 19.3467 145.197 19.16 146.664 19.16C149.037 19.16 150.864 19.7467 152.144 20.92C153.45 22.0667 154.104 23.9467 154.104 26.56V35.4C154.104 36.6 154.664 37.2 155.784 37.2H156.664L157.024 37.52C156.517 38.16 155.957 38.6533 155.344 39C154.757 39.3467 153.917 39.52 152.824 39.52C151.65 39.52 150.717 39.2533 150.024 38.72C149.357 38.16 148.917 37.4267 148.704 36.52C147.904 37.3733 147.077 38.1067 146.224 38.72C145.397 39.3067 144.317 39.6 142.984 39.6ZM145.424 37.16C145.957 37.16 146.45 37.04 146.904 36.8C147.384 36.5333 147.944 36.1333 148.584 35.6V28.88C148.317 28.9333 148.05 28.9867 147.784 29.04C147.517 29.0933 147.21 29.1467 146.864 29.2C145.637 29.52 144.65 30.0667 143.904 30.84C143.184 31.5867 142.824 32.6 142.824 33.88C142.824 34.9733 143.077 35.8 143.584 36.36C144.09 36.8933 144.704 37.16 145.424 37.16ZM157.967 39V38.6L158.447 38.44C159.407 38.12 159.887 37.4533 159.887 36.44V15.04C159.887 14.5067 159.78 14.1067 159.567 13.84C159.354 13.5467 158.98 13.3333 158.447 13.2L157.927 13.08V12.68L165.247 10.96L165.727 11.32L165.567 16.92V30.6C165.567 31.5867 165.567 32.5733 165.567 33.56C165.594 34.52 165.607 35.48 165.607 36.44C165.607 36.9733 165.714 37.4133 165.927 37.76C166.14 38.08 166.5 38.32 167.007 38.48L167.527 38.6V39H157.967ZM183.092 39V38.6L184.732 38.2C185.825 37.96 186.372 37.2933 186.372 36.2V13.4H182.972C181.985 13.4 181.278 13.6667 180.852 14.2C180.425 14.7067 179.972 15.4133 179.492 16.32L178.052 19.12H177.652L177.852 12.6H200.932L201.092 19.12H200.692L199.252 16.32C198.798 15.4133 198.358 14.7067 197.932 14.2C197.505 13.6667 196.798 13.4 195.812 13.4H192.412V36.2C192.412 37.2933 192.958 37.96 194.052 38.2L195.692 38.6V39H183.092ZM201.284 39V38.6L201.884 38.44C202.418 38.28 202.778 38.04 202.964 37.72C203.178 37.4 203.284 36.9867 203.284 36.48V23.96C203.284 23.3733 203.178 22.9467 202.964 22.68C202.778 22.3867 202.418 22.1867 201.884 22.08L201.284 21.92V21.52L208.164 19.2L208.564 19.6L208.924 23.04V23.36C209.298 22.6133 209.778 21.9333 210.364 21.32C210.978 20.68 211.644 20.16 212.364 19.76C213.111 19.36 213.844 19.16 214.564 19.16C215.578 19.16 216.351 19.44 216.884 20C217.418 20.56 217.684 21.2667 217.684 22.12C217.684 23.0267 217.418 23.7333 216.884 24.24C216.378 24.72 215.764 24.96 215.044 24.96C213.924 24.96 212.938 24.4 212.084 23.28L212.004 23.2C211.738 22.8267 211.431 22.6267 211.084 22.6C210.738 22.5467 210.418 22.7067 210.124 23.08C209.858 23.32 209.631 23.6133 209.444 23.96C209.284 24.28 209.124 24.6533 208.964 25.08V36.24C208.964 37.3067 209.431 37.9733 210.364 38.24L211.644 38.6V39H201.284ZM223.921 39.6C222.375 39.6 221.068 39.16 220.001 38.28C218.961 37.4 218.441 36.1333 218.441 34.48C218.441 33.2267 219.081 32.08 220.361 31.04C221.641 29.9733 223.655 29.1733 226.401 28.64C226.828 28.56 227.308 28.48 227.841 28.4C228.375 28.2933 228.935 28.1867 229.521 28.08V24.92C229.521 23.1067 229.295 21.84 228.841 21.12C228.415 20.3733 227.735 20 226.801 20C226.161 20 225.655 20.2133 225.281 20.64C224.908 21.04 224.668 21.7467 224.561 22.76L224.481 23.2C224.428 24.3467 224.148 25.1867 223.641 25.72C223.135 26.2533 222.508 26.52 221.761 26.52C221.068 26.52 220.495 26.3067 220.041 25.88C219.588 25.4533 219.361 24.88 219.361 24.16C219.361 23.0667 219.735 22.1467 220.481 21.4C221.255 20.6533 222.268 20.0933 223.521 19.72C224.775 19.3467 226.135 19.16 227.601 19.16C229.975 19.16 231.801 19.7467 233.081 20.92C234.388 22.0667 235.041 23.9467 235.041 26.56V35.4C235.041 36.6 235.601 37.2 236.721 37.2H237.601L237.961 37.52C237.455 38.16 236.895 38.6533 236.281 39C235.695 39.3467 234.855 39.52 233.761 39.52C232.588 39.52 231.655 39.2533 230.961 38.72C230.295 38.16 229.855 37.4267 229.641 36.52C228.841 37.3733 228.015 38.1067 227.161 38.72C226.335 39.3067 225.255 39.6 223.921 39.6ZM226.361 37.16C226.895 37.16 227.388 37.04 227.841 36.8C228.321 36.5333 228.881 36.1333 229.521 35.6V28.88C229.255 28.9333 228.988 28.9867 228.721 29.04C228.455 29.0933 228.148 29.1467 227.801 29.2C226.575 29.52 225.588 30.0667 224.841 30.84C224.121 31.5867 223.761 32.6 223.761 33.88C223.761 34.9733 224.015 35.8 224.521 36.36C225.028 36.8933 225.641 37.16 226.361 37.16ZM247.264 39.6C245.691 39.6 244.278 39.2533 243.024 38.56C241.771 37.84 240.771 36.7467 240.024 35.28C239.304 33.7867 238.944 31.88 238.944 29.56C238.944 27.2133 239.358 25.28 240.184 23.76C241.011 22.2133 242.104 21.0667 243.464 20.32C244.824 19.5467 246.304 19.16 247.904 19.16C248.838 19.16 249.731 19.2533 250.584 19.44C251.438 19.6267 252.198 19.9067 252.864 20.28V15.08C252.864 14.52 252.771 14.1067 252.584 13.84C252.424 13.5733 252.064 13.3867 251.504 13.28L250.744 13.12V12.72L258.024 10.96L258.464 11.32L258.304 16.92V36.48C258.304 37.0133 258.398 37.4533 258.584 37.8C258.771 38.12 259.118 38.3467 259.624 38.48L259.984 38.6V39L253.144 39.44L252.784 38C252.064 38.48 251.238 38.8667 250.304 39.16C249.398 39.4533 248.384 39.6 247.264 39.6ZM249.584 38.12C250.704 38.12 251.731 37.7867 252.664 37.12V21.24C251.678 20.6 250.664 20.28 249.624 20.28C248.344 20.28 247.251 21.0267 246.344 22.52C245.438 23.9867 244.984 26.3067 244.984 29.48C244.984 32.6533 245.411 34.8933 246.264 36.2C247.118 37.48 248.224 38.12 249.584 38.12ZM266.553 17.08C265.646 17.08 264.873 16.8 264.233 16.24C263.62 15.6533 263.313 14.92 263.313 14.04C263.313 13.1333 263.62 12.4 264.233 11.84C264.873 11.28 265.646 11 266.553 11C267.46 11 268.22 11.28 268.833 11.84C269.446 12.4 269.753 13.1333 269.753 14.04C269.753 14.92 269.446 15.6533 268.833 16.24C268.22 16.8 267.46 17.08 266.553 17.08ZM261.833 39V38.6L262.393 38.44C262.926 38.28 263.286 38.04 263.473 37.72C263.686 37.4 263.793 36.9733 263.793 36.44V23.92C263.793 23.36 263.686 22.9467 263.473 22.68C263.286 22.3867 262.926 22.1867 262.393 22.08L261.833 21.96V21.56L269.153 19.2L269.553 19.6L269.433 25.28V36.48C269.433 37.0133 269.526 37.44 269.713 37.76C269.926 38.08 270.286 38.32 270.793 38.48L271.193 38.6V39H261.833ZM272.964 39V38.6L273.524 38.44C274.457 38.1733 274.924 37.52 274.924 36.48V23.96C274.924 23.3733 274.831 22.9467 274.644 22.68C274.457 22.3867 274.097 22.1867 273.564 22.08L272.964 21.92V21.52L279.804 19.2L280.204 19.6L280.524 22C281.457 21.1733 282.511 20.4933 283.684 19.96C284.857 19.4267 286.017 19.16 287.164 19.16C288.924 19.16 290.271 19.64 291.204 20.6C292.164 21.56 292.644 23.0267 292.644 25V36.52C292.644 37.56 293.151 38.2133 294.164 38.48L294.524 38.6V39H285.084V38.6L285.604 38.44C286.537 38.1467 287.004 37.4933 287.004 36.48V23.72C287.004 22.0133 286.151 21.16 284.444 21.16C283.271 21.16 281.991 21.7467 280.604 22.92V36.52C280.604 37.56 281.071 38.2133 282.004 38.48L282.364 38.6V39H272.964ZM304.809 32.08C302.969 32.08 301.409 31.7733 300.129 31.16V32.52C300.129 33.3467 300.542 33.84 301.369 34L308.889 35.4C310.142 35.64 311.276 35.96 312.289 36.36C313.302 36.7333 314.116 37.28 314.729 38C315.342 38.6933 315.649 39.6533 315.649 40.88C315.649 42.1867 315.222 43.3867 314.369 44.48C313.516 45.6 312.249 46.4933 310.569 47.16C308.916 47.8533 306.849 48.2 304.369 48.2C302.236 48.2 300.542 47.9733 299.289 47.52C298.036 47.0933 297.142 46.5333 296.609 45.84C296.102 45.1467 295.849 44.4133 295.849 43.64C295.849 42.68 296.169 41.7067 296.809 40.72C297.476 39.76 298.289 38.9867 299.249 38.4C298.422 38.08 297.822 37.6667 297.449 37.16C297.076 36.6533 296.889 36.1067 296.889 35.52C296.889 34.9867 297.022 34.4933 297.289 34.04C297.582 33.56 297.929 33.08 298.329 32.6L299.649 30.92C297.702 29.8 296.729 28.04 296.729 25.64C296.729 23.72 297.409 22.16 298.769 20.96C300.156 19.76 302.182 19.16 304.849 19.16C306.209 19.16 307.396 19.32 308.409 19.64C309.449 19.96 310.302 20.4133 310.969 21C311.822 20.8667 312.622 20.6533 313.369 20.36C314.142 20.04 314.836 19.6133 315.449 19.08L316.009 19.48V21.52H311.489C312.449 22.5867 312.929 23.96 312.929 25.64C312.929 27.5067 312.236 29.0533 310.849 30.28C309.489 31.48 307.476 32.08 304.809 32.08ZM304.769 31.28C305.836 31.28 306.609 30.84 307.089 29.96C307.596 29.08 307.849 27.6133 307.849 25.56C307.849 23.5067 307.596 22.0667 307.089 21.24C306.609 20.3867 305.862 19.96 304.849 19.96C303.862 19.96 303.116 20.4 302.609 21.28C302.102 22.1333 301.849 23.5867 301.849 25.64C301.849 27.6933 302.076 29.1467 302.529 30C303.009 30.8533 303.756 31.28 304.769 31.28ZM298.809 42.36C298.809 43.9333 299.289 45.12 300.249 45.92C301.236 46.72 302.782 47.12 304.889 47.12C307.102 47.12 308.769 46.76 309.889 46.04C311.009 45.32 311.569 44.3067 311.569 43C311.569 42.2533 311.289 41.6533 310.729 41.2C310.196 40.7467 309.276 40.4 307.969 40.16L300.729 38.8C300.516 38.7467 300.302 38.6933 300.089 38.64C299.716 39.1733 299.409 39.7733 299.169 40.44C298.929 41.1333 298.809 41.7733 298.809 42.36Z" fill="#292F36"/>
<path d="M0 42.0003H13.4588V32.499C13.4588 30.4853 15.0898 28.8543 17.1035 28.8543C19.1172 28.8543 20.7482 30.4853 20.7482 32.499V42.0003H33.9975V8C15.2211 8 0 23.2211 0 42.0003Z" fill="#CDA274"/>
</svg>
